<?xml version="1.0" standalone="no"?>
<!DOCTYPE svg PUBLIC "-//W3C//DTD SVG 20010904//EN"
 "http://www.w3.org/TR/2001/REC-SVG-20010904/DTD/svg10.dtd">
<svg version="1.0" xmlns="http://www.w3.org/2000/svg"
 width="500.000000pt" height="500.000000pt" viewBox="0 0 500.000000 500.000000"
 preserveAspectRatio="xMidYMid meet">
<metadata>
Created by potrace 1.15, written by Peter Selinger 2001-2017
</metadata>
<g transform="translate(0.000000,500.000000) scale(0.100000,-0.100000)"
fill="#000000" stroke="none">
<path d="M1965 4860 c-182 -29 -357 -91 -476 -169 -81 -54 -207 -179 -253
-252 l-29 -46 -294 -84 c-161 -46 -293 -86 -293 -89 0 -3 107 -33 237 -68 130
-34 238 -64 239 -65 2 -2 1 -12 -2 -22 -4 -17 -38 -29 -192 -69 -103 -28 -212
-57 -242 -66 l-55 -16 248 -70 247 -69 9 -35 c5 -19 47 -177 94 -350 l84 -315
-588 -5 -588 -5 -23 -23 c-23 -22 -23 -27 -26 -285 -4 -307 8 -468 48 -668 82
-399 240 -736 499 -1057 87 -107 257 -277 366 -364 348 -278 766 -456 1225
-519 140 -20 487 -17 630 5 274 41 502 111 735 225 420 206 766 519 1011 913
140 226 259 522 308 770 46 226 51 288 51 630 l0 327 -23 23 -23 23 -549 3
-549 2 -502 738 c-276 405 -525 761 -553 790 -104 109 -267 203 -421 242 -92
24 -261 33 -350 20z m-555 -2027 c1 -78 12 -211 36 -401 9 -73 14 -135 12
-137 -2 -2 -41 7 -87 20 -271 79 -517 199 -726 356 -83 62 -265 217 -265 225
0 2 232 4 515 4 l515 0 0 -67z m640 5 c1 -173 53 -516 112 -738 154 -578 469
-1122 896 -1548 164 -163 165 -143 -9 -186 -112 -27 -254 -51 -359 -60 l-65
-5 -87 102 c-349 406 -580 813 -763 1337 -100 288 -176 684 -191 990 -3 63 -7
127 -9 143 l-4 27 239 0 240 0 0 -62z m675 -5 c18 -200 29 -282 56 -417 114
-563 421 -1098 849 -1479 69 -62 147 -128 172 -147 26 -19 48 -38 48 -42 0
-15 -231 -159 -342 -214 -137 -66 -115 -71 -252 57 -585 549 -944 1271 -1025
2064 -6 55 -12 133 -14 173 l-3 72 252 0 252 0 7 -67z m669 51 c3 -9 6 -34 6
-57 0 -23 7 -89 15 -147 78 -549 378 -1047 833 -1384 45 -33 82 -64 82 -67 0
-20 -187 -233 -265 -304 l-75 -67 -58 43 c-242 181 -438 390 -617 659 -185
277 -307 571 -375 904 -24 116 -50 320 -50 388 l0 48 249 0 c218 0 250 -2 255
-16z m684 -76 c45 -365 237 -705 535 -944 l38 -31 -37 -94 c-36 -93 -141 -306
-169 -343 -19 -26 -34 -18 -169 90 -257 207 -461 485 -586 799 -57 142 -109
372 -125 548 l-6 67 254 0 254 0 11 -92z m692 -150 c0 -134 -5 -283 -10 -333
-12 -116 -51 -315 -62 -315 -13 0 -150 141 -200 206 -92 120 -159 247 -207
394 -25 77 -51 208 -51 256 l0 34 265 0 265 0 0 -242z m-4305 -59 c265 -213
596 -378 919 -458 63 -15 113 -33 117 -41 4 -8 17 -58 29 -110 12 -52 53 -189
91 -304 38 -115 67 -211 65 -214 -6 -5 -143 15 -256 39 -369 77 -725 230
-1051 451 l-87 59 -22 114 c-31 168 -40 268 -40 484 l0 194 83 -79 c45 -44
114 -104 152 -135z m10 -894 c79 -51 268 -143 410 -200 236 -95 467 -157 705
-190 63 -8 129 -18 147 -21 31 -5 37 -14 118 -173 47 -92 110 -207 140 -255
30 -48 55 -90 55 -93 0 -3 -46 -3 -102 1 -361 23 -710 97 -1033 218 -73 27
-86 36 -140 99 -108 126 -223 300 -304 464 -44 88 -83 171 -86 183 -6 22 -5
23 16 11 13 -6 46 -27 74 -44z m845 -1009 c217 -51 456 -82 701 -93 l151 -6
61 -81 c33 -45 79 -103 102 -131 78 -96 79 -87 -6 -80 -407 37 -740 150 -1066
361 -81 52 -101 71 -65 60 9 -3 64 -16 122 -30z"/>
</g>
</svg>
