<?xml version="1.0" standalone="no"?>
<!DOCTYPE svg PUBLIC "-//W3C//DTD SVG 20010904//EN"
 "http://www.w3.org/TR/2001/REC-SVG-20010904/DTD/svg10.dtd">
<svg version="1.0" xmlns="http://www.w3.org/2000/svg"
 width="500.000000pt" height="500.000000pt" viewBox="0 0 500.000000 500.000000"
 preserveAspectRatio="xMidYMid meet">
<metadata>
Created by potrace 1.11, written by Peter Selinger 2001-2013
</metadata>
<g transform="translate(0.000000,500.000000) scale(0.100000,-0.100000)"
fill="#000000" stroke="none">
<path d="M2140 4023 c-189 -32 -363 -132 -450 -257 l-28 -42 -191 -54 c-105
-29 -189 -55 -187 -57 4 -4 83 -26 224 -63 46 -13 82 -28 82 -34 0 -8 -58 -28
-142 -51 -79 -21 -149 -41 -156 -44 -7 -4 52 -25 130 -46 79 -21 149 -41 157
-45 12 -6 130 -410 131 -447 0 -10 -82 -13 -378 -13 -365 0 -380 -1 -397 -20
-16 -18 -17 -38 -12 -262 4 -186 10 -266 26 -340 130 -632 602 -1103 1244
-1239 139 -30 413 -32 567 -5 127 22 316 82 425 135 375 183 672 522 806 922
57 169 70 260 76 527 5 224 4 244 -12 262 -17 19 -32 20 -369 20 l-351 0 -330
481 c-220 320 -347 497 -381 528 -122 112 -322 172 -484 144z m-346 -1366 c4
-56 13 -144 20 -194 l12 -92 -25 6 c-58 14 -229 77 -283 104 -126 64 -241 142
-348 238 l-45 40 331 1 331 0 7 -103z m411 36 c32 -344 89 -567 214 -828 105
-220 230 -398 410 -587 61 -64 108 -119 103 -121 -19 -12 -175 -46 -260 -57
l-93 -12 -34 39 c-381 428 -605 962 -641 1526 l-7 107 151 0 150 0 7 -67z
m438 -21 c33 -463 273 -924 636 -1222 l91 -74 -76 -49 c-41 -27 -110 -66 -152
-87 l-76 -38 -64 56 c-35 31 -100 96 -144 145 -326 364 -502 775 -543 1275
l-7 82 164 0 165 0 6 -88z m432 31 c43 -391 212 -705 500 -934 l104 -82 -32
-41 c-44 -56 -178 -196 -187 -196 -18 0 -172 134 -261 227 -254 266 -423 642
-446 996 l-6 87 161 0 161 0 6 -57z m435 23 c0 -51 44 -213 78 -288 46 -102
126 -211 215 -294 l80 -74 -42 -97 c-23 -54 -55 -120 -72 -146 l-30 -48 -46
33 c-80 56 -247 229 -302 313 -116 178 -183 362 -206 573 l-7 62 166 0 166 0
0 -34z m447 -173 c-5 -186 -24 -344 -44 -363 -11 -11 -151 151 -190 221 -51
89 -91 207 -100 289 l-6 60 173 0 173 0 -6 -207z m-2687 -52 c153 -105 405
-216 537 -237 l41 -6 17 -72 c10 -39 37 -131 62 -205 24 -73 42 -135 40 -137
-12 -12 -288 51 -397 91 -180 66 -241 95 -386 188 -111 70 -112 71 -123 121
-20 93 -30 199 -31 329 l0 129 78 -72 c42 -39 115 -97 162 -129z m-33 -534
c109 -60 257 -122 379 -160 89 -28 327 -77 374 -77 27 0 33 -7 75 -89 24 -49
65 -124 90 -167 25 -42 43 -79 40 -82 -3 -3 -74 2 -158 11 -170 19 -398 69
-529 117 -82 30 -90 35 -141 98 -79 98 -132 180 -188 291 -48 97 -54 111 -44
111 2 0 48 -24 102 -53z m510 -627 c137 -30 284 -50 417 -57 l121 -6 72 -94
c40 -51 69 -93 65 -93 -4 0 -59 6 -122 14 -173 22 -310 65 -477 150 -80 41
-186 106 -173 106 3 0 47 -9 97 -20z"/>
</g>
</svg>
