<?xml version="1.0" standalone="no"?>
<!DOCTYPE svg PUBLIC "-//W3C//DTD SVG 20010904//EN"
 "http://www.w3.org/TR/2001/REC-SVG-20010904/DTD/svg10.dtd">
<svg version="1.0" xmlns="http://www.w3.org/2000/svg"
 width="700.000000pt" height="700.000000pt" viewBox="0 0 700.000000 700.000000"
 preserveAspectRatio="xMidYMid meet">
<metadata>
Created by potrace 1.11, written by Peter Selinger 2001-2013
</metadata>
<g transform="translate(0.000000,700.000000) scale(0.100000,-0.100000)"
fill="#000000" stroke="none">
<path d="M2635 6780 c-173 -39 -273 -73 -435 -148 -37 -17 -131 -72 -140 -81
-3 -4 -26 -23 -51 -43 -100 -80 -242 -233 -288 -311 -28 -46 -31 -48 -171 -87
-184 -51 -612 -177 -644 -190 -16 -6 -27 -12 -25 -15 5 -4 170 -54 203 -60 10
-3 60 -16 110 -31 50 -14 123 -34 161 -44 167 -43 183 -49 178 -71 -9 -34 3
-30 -488 -164 -93 -26 -173 -50 -177 -54 -4 -3 144 -49 330 -100 185 -52 338
-95 340 -96 2 -2 137 -500 148 -545 1 -8 14 -55 28 -105 33 -122 86 -322 86
-327 0 -1 -82 -4 -183 -4 -100 -1 -469 -4 -821 -7 l-639 -6 -24 -23 c-13 -12
-27 -36 -32 -52 -19 -72 -17 -748 4 -951 11 -117 13 -129 19 -165 14 -83 17
-97 22 -130 9 -55 52 -238 75 -315 167 -573 445 -1042 869 -1465 58 -58 134
-132 170 -164 77 -71 313 -249 391 -295 29 -18 83 -50 119 -72 96 -59 369
-191 495 -239 107 -41 242 -86 355 -117 60 -17 58 -16 115 -28 22 -5 42 -10
45 -10 3 -1 16 -5 30 -8 14 -4 39 -9 55 -12 135 -23 230 -37 285 -43 88 -9
561 -9 685 1 115 9 334 47 480 83 55 14 109 27 119 29 108 23 427 151 601 240
339 175 606 368 866 625 213 212 333 363 513 644 105 164 259 499 332 726 63
192 124 463 139 613 3 37 9 78 12 90 2 12 7 236 10 497 l5 475 -34 33 -35 33
-729 4 c-401 2 -747 4 -769 5 l-40 0 -113 168 c-189 279 -360 531 -437 642
-39 58 -107 157 -150 220 -548 803 -748 1082 -827 1155 -143 133 -379 257
-558 294 -30 6 -66 14 -80 17 -14 3 -106 7 -205 9 -165 2 -190 0 -300 -25z
m-659 -2797 c1 -79 13 -280 19 -311 1 -9 6 -44 9 -77 9 -88 18 -166 22 -200 2
-16 6 -65 10 -107 l6 -77 -59 14 c-164 38 -446 145 -629 239 -242 123 -381
214 -574 375 -41 34 -84 69 -95 78 -71 58 -144 126 -141 132 3 4 326 8 718 10
l713 2 1 -78z m895 5 c1 -112 9 -229 24 -328 3 -23 10 -78 20 -160 3 -19 9
-57 14 -85 6 -27 13 -68 16 -89 3 -21 7 -48 10 -60 3 -12 7 -32 9 -46 3 -14
12 -56 21 -95 9 -38 18 -79 19 -90 24 -139 150 -516 253 -755 34 -78 201 -415
223 -450 5 -8 48 -80 96 -159 74 -122 250 -379 306 -446 9 -11 38 -47 64 -80
80 -101 172 -202 342 -377 89 -92 162 -173 162 -181 0 -8 -6 -19 -12 -25 -33
-26 -425 -106 -628 -128 -136 -15 -129 -17 -201 66 -438 504 -714 943 -970
1538 -75 174 -200 522 -224 622 -2 8 -19 76 -38 150 -20 74 -38 153 -41 175
-4 22 -9 48 -12 57 -12 40 -69 381 -79 473 -3 33 -8 74 -10 90 -5 34 -12 138
-20 275 -4 52 -8 114 -11 138 l-4 42 335 0 335 0 1 -72z m932 65 c3 -5 8 -44
12 -88 3 -44 8 -89 10 -100 2 -11 7 -51 11 -90 11 -121 12 -132 33 -248 11
-63 23 -131 27 -152 3 -21 21 -97 39 -169 195 -759 637 -1467 1225 -1961 58
-48 107 -91 110 -94 3 -3 31 -28 63 -54 31 -27 55 -52 52 -57 -17 -28 -333
-219 -494 -300 -122 -61 -155 -65 -209 -24 -53 40 -355 343 -443 444 -41 47
-76 87 -79 90 -3 3 -28 34 -55 70 -28 36 -56 71 -63 78 -35 38 -251 356 -301
445 -46 82 -59 104 -89 158 -135 244 -283 600 -356 859 -15 52 -31 106 -36
120 -5 14 -12 36 -14 50 -3 14 -19 84 -35 155 -16 72 -32 150 -36 175 -3 25
-8 52 -10 60 -2 8 -6 29 -9 45 -2 17 -7 48 -11 70 -3 22 -7 56 -9 75 -6 64
-18 175 -21 210 -2 19 -7 81 -10 138 l-7 102 350 0 c193 0 353 -3 355 -7z
m941 -4 c6 -6 16 -84 31 -244 4 -38 8 -72 10 -75 2 -4 6 -24 9 -46 6 -50 33
-189 46 -234 66 -235 123 -386 215 -570 34 -69 76 -147 92 -175 41 -68 125
-199 133 -205 3 -3 13 -17 23 -32 44 -69 192 -243 292 -344 127 -127 211 -201
345 -304 121 -93 124 -97 103 -129 -50 -79 -369 -424 -436 -473 -23 -16 -26
-15 -124 60 -274 211 -465 406 -731 747 -82 105 -236 353 -315 508 -183 356
-319 796 -363 1175 -3 31 -8 63 -9 71 -9 54 -19 207 -16 259 l1 24 344 -4
c189 -1 347 -6 350 -9z m962 -79 c44 -341 138 -604 310 -868 117 -180 223
-299 424 -477 45 -40 64 -63 62 -77 -9 -52 -167 -397 -246 -535 -29 -52 -47
-73 -61 -73 -55 0 -368 266 -536 455 -213 241 -416 583 -516 870 -25 72 -81
270 -89 315 -3 14 -13 70 -24 125 -20 104 -25 144 -36 248 -3 34 -7 72 -9 85
l-4 22 357 -2 357 -3 11 -85z m969 -287 c-2 -208 -7 -389 -9 -403 -3 -14 -7
-52 -11 -85 -4 -33 -15 -107 -26 -165 -11 -58 -22 -118 -25 -134 -8 -41 -22
-76 -31 -76 -12 0 -98 84 -182 175 -197 216 -358 516 -417 780 -15 69 -34 188
-37 233 l-3 52 373 0 374 0 -6 -377z m-6310 215 c33 -34 180 -169 250 -229 22
-19 67 -54 100 -79 33 -24 62 -46 65 -49 10 -12 207 -139 290 -188 257 -150
544 -267 878 -359 131 -35 157 -51 166 -99 4 -21 27 -108 52 -194 44 -154 53
-183 133 -435 23 -70 45 -146 50 -168 l9 -40 -56 7 c-75 8 -306 50 -379 69
-32 8 -69 17 -83 20 -72 14 -433 130 -455 146 -5 4 -28 13 -50 20 -85 27 -358
158 -513 247 -90 51 -392 241 -410 258 -6 6 -60 310 -67 380 -4 39 -9 79 -12
90 -7 32 -13 635 -6 635 3 0 20 -15 38 -32z m284 -1502 c189 -113 470 -245
714 -335 202 -74 388 -127 632 -180 49 -10 267 -46 335 -55 126 -17 134 -20
168 -74 26 -42 113 -204 165 -307 17 -36 139 -248 190 -334 l20 -33 -119 6
c-65 4 -137 9 -159 10 -134 12 -186 18 -235 27 -30 5 -68 11 -85 13 -106 14
-133 18 -160 26 -16 4 -50 11 -75 14 -159 23 -714 186 -828 245 -24 12 -60 39
-80 59 -74 73 -223 273 -326 438 -62 98 -266 498 -266 520 0 22 14 17 109 -40z
m1221 -1424 c156 -36 164 -37 290 -58 52 -8 109 -17 125 -20 17 -3 53 -7 80
-10 28 -2 59 -6 71 -8 11 -2 60 -7 110 -11 49 -4 100 -8 113 -10 13 -2 93 -7
179 -11 207 -8 203 -7 226 -40 36 -49 239 -308 253 -322 23 -23 34 -50 23 -57
-5 -3 -30 -3 -55 0 -25 3 -65 7 -90 10 -105 12 -146 17 -250 36 -145 25 -138
23 -267 58 -231 62 -389 122 -600 227 -140 70 -417 240 -418 255 0 7 27 2 210
-39z"/>
</g>
</svg>
