<?xml version="1.0" standalone="no"?>
<!DOCTYPE svg PUBLIC "-//W3C//DTD SVG 20010904//EN"
 "http://www.w3.org/TR/2001/REC-SVG-20010904/DTD/svg10.dtd">
<svg version="1.0" xmlns="http://www.w3.org/2000/svg"
 width="700.000000pt" height="700.000000pt" viewBox="0 0 700.000000 700.000000"
 preserveAspectRatio="xMidYMid meet">
<metadata>
Created by potrace 1.11, written by Peter Selinger 2001-2013
</metadata>
<g transform="translate(0.000000,700.000000) scale(0.100000,-0.100000)"
fill="#000000" stroke="none">
<path d="M2970 5625 c-161 -36 -303 -92 -400 -158 -62 -43 -159 -137 -206
-201 -38 -53 -40 -54 -139 -82 -55 -15 -125 -35 -155 -44 -30 -10 -98 -30
-150 -45 -52 -16 -99 -31 -103 -35 -4 -4 63 -26 150 -49 218 -58 253 -71 253
-93 0 -10 -6 -20 -12 -22 -7 -2 -104 -28 -216 -56 -111 -29 -201 -54 -200 -56
2 -1 62 -19 133 -39 264 -74 296 -86 307 -114 11 -30 114 -394 122 -431 3 -14
15 -58 26 -98 12 -41 20 -75 18 -77 -2 -2 -235 -6 -518 -8 -344 -3 -524 -8
-543 -16 -15 -6 -32 -23 -38 -38 -14 -34 -5 -576 10 -673 6 -36 13 -83 16
-105 21 -139 93 -368 163 -520 123 -266 266 -465 486 -681 122 -119 215 -192
341 -271 234 -144 587 -278 809 -308 27 -3 53 -8 56 -10 12 -7 201 -19 295
-18 87 0 248 11 289 19 12 2 40 6 64 9 77 9 230 45 345 82 128 40 141 45 297
120 350 167 682 472 907 831 145 231 254 536 298 832 9 61 19 339 19 518 l0
172 -26 27 -27 26 -400 4 c-221 2 -440 3 -488 3 l-88 1 -55 82 c-31 45 -98
144 -150 220 -52 76 -131 190 -175 255 -327 479 -552 790 -617 854 -77 76
-204 142 -343 180 -95 26 -271 32 -355 13z m-475 -1766 c3 -4 8 -28 10 -55 3
-27 7 -71 10 -99 2 -27 7 -77 10 -110 3 -33 8 -71 10 -85 3 -20 16 -140 17
-160 1 -26 -4 -27 -59 -13 -162 41 -376 133 -536 231 -116 71 -367 267 -367
286 0 9 120 11 517 11 210 0 385 -3 388 -6z m586 -27 c3 -17 9 -69 13 -114 6
-80 8 -99 21 -198 18 -137 56 -305 119 -525 80 -277 302 -695 500 -941 26 -33
54 -68 63 -79 35 -44 153 -174 235 -259 48 -50 85 -92 83 -94 -4 -4 -137 -39
-180 -48 -120 -23 -248 -41 -289 -40 -48 1 -51 3 -104 66 -30 36 -64 76 -76
90 -71 83 -225 301 -292 414 -213 357 -354 710 -429 1076 -14 68 -27 126 -29
129 -2 3 -7 31 -10 61 -4 30 -11 80 -16 110 -5 30 -12 71 -15 90 -3 19 -8 94
-11 165 l-7 130 209 -1 208 -1 7 -31z m614 -32 c3 -36 8 -78 10 -95 2 -16 7
-52 10 -80 3 -27 10 -73 16 -101 5 -28 12 -64 15 -80 3 -16 7 -37 10 -46 3 -9
6 -25 8 -35 28 -141 124 -403 207 -558 170 -322 378 -577 656 -803 45 -37 82
-70 82 -75 1 -12 -159 -112 -292 -182 l-123 -65 -69 63 c-97 87 -191 182 -255
258 -30 35 -57 66 -60 69 -4 3 -43 55 -87 115 -140 192 -289 458 -378 675 -65
158 -143 426 -160 545 -3 23 -7 50 -9 60 -2 11 -7 42 -10 68 -4 27 -9 57 -11
66 -4 22 -18 164 -20 211 -1 19 2 40 6 45 4 6 92 10 228 10 l220 0 6 -65z
m591 61 c7 0 15 -29 19 -63 4 -35 8 -70 10 -78 1 -8 5 -32 9 -52 15 -95 58
-277 82 -346 33 -96 136 -304 198 -399 94 -146 230 -298 377 -423 35 -30 66
-57 69 -60 3 -4 26 -21 52 -39 37 -27 45 -37 38 -50 -18 -35 -280 -321 -293
-321 -24 0 -174 126 -297 250 -249 248 -371 424 -510 731 -47 105 -94 232
-104 279 -2 14 -11 52 -20 85 -8 33 -18 76 -22 95 -3 19 -7 40 -8 45 -2 6 -6
33 -10 60 -4 28 -10 61 -12 75 -4 25 -13 106 -18 170 -2 19 -2 37 0 40 2 4
402 5 440 1z m630 -37 c10 -156 81 -376 170 -522 64 -106 115 -170 238 -296
58 -60 106 -113 106 -117 0 -28 -165 -366 -194 -396 -6 -7 -167 123 -240 195
-247 241 -391 482 -481 801 -35 124 -72 351 -61 369 2 4 107 7 232 6 l227 0 3
-40z m625 37 c8 -1 -4 -424 -16 -546 -16 -158 -30 -231 -47 -241 -14 -9 -118
96 -188 188 -69 91 -147 249 -185 373 -27 89 -42 191 -33 217 4 10 53 13 234
11 126 0 232 -2 235 -2z m-4056 -119 c34 -31 170 -147 206 -176 116 -92 396
-245 564 -310 39 -15 79 -31 90 -35 32 -14 95 -31 168 -46 38 -7 70 -15 72
-17 2 -2 15 -46 28 -98 31 -117 76 -267 116 -382 18 -53 26 -90 20 -94 -8 -4
-90 3 -119 11 -3 1 -23 5 -45 9 -210 40 -542 153 -722 247 -111 57 -303 180
-339 216 -32 31 -46 85 -69 253 -9 72 -16 450 -8 450 5 0 22 -13 38 -28z m305
-1014 c258 -125 392 -176 605 -233 63 -17 67 -18 155 -36 75 -16 78 -16 140
-24 30 -4 62 -9 70 -11 8 -1 27 -3 41 -3 22 -1 32 -11 54 -53 81 -156 142
-270 175 -323 64 -105 68 -99 -67 -91 -65 3 -129 8 -143 10 -14 3 -59 10 -100
16 -179 29 -352 69 -510 117 -190 58 -239 90 -339 222 -99 130 -247 384 -279
478 l-10 31 26 -12 c15 -7 97 -46 182 -88z m595 -838 c22 -5 51 -11 65 -13
234 -44 230 -43 306 -52 33 -4 66 -9 75 -10 8 -2 60 -6 115 -10 54 -5 110 -9
124 -10 14 -2 48 -3 76 -4 l52 -1 78 -102 c43 -57 86 -112 96 -122 10 -11 18
-23 18 -28 0 -11 -64 -10 -131 1 -30 6 -76 13 -102 16 -67 8 -253 57 -362 95
-107 37 -322 142 -420 205 -71 45 -69 53 10 35z"/>
</g>
</svg>
